<svg xmlns="http://www.w3.org/2000/svg" version="1.1" xmlns:xlink="http://www.w3.org/1999/xlink" xmlns:svgjs="http://svgjs.dev/svgjs" viewBox="0 0 800 800" opacity="1"><g stroke-width="2.5" stroke="#0d0f25" fill="none" stroke-linecap="round"><path d="M 0 1166 Q 200 120 400 400 Q 600 680 800 1166"></path><path d="M 0 1144 Q 200 120 400 400 Q 600 680 800 1144"></path><path d="M 0 1122 Q 200 120 400 400 Q 600 680 800 1122"></path><path d="M 0 1100 Q 200 120 400 400 Q 600 680 800 1100"></path><path d="M 0 1078 Q 200 120 400 400 Q 600 680 800 1078"></path><path d="M 0 1056 Q 200 120 400 400 Q 600 680 800 1056"></path><path d="M 0 1034 Q 200 120 400 400 Q 600 680 800 1034"></path><path d="M 0 1012 Q 200 120 400 400 Q 600 680 800 1012"></path><path d="M 0 990 Q 200 120 400 400 Q 600 680 800 990"></path><path d="M 0 968 Q 200 120 400 400 Q 600 680 800 968"></path><path d="M 0 946 Q 200 120 400 400 Q 600 680 800 946"></path><path d="M 0 924 Q 200 120 400 400 Q 600 680 800 924"></path><path d="M 0 902 Q 200 120 400 400 Q 600 680 800 902"></path><path d="M 0 880 Q 200 120 400 400 Q 600 680 800 880"></path><path d="M 0 858 Q 200 120 400 400 Q 600 680 800 858"></path><path d="M 0 836 Q 200 120 400 400 Q 600 680 800 836"></path><path d="M 0 814 Q 200 120 400 400 Q 600 680 800 814"></path><path d="M 0 792 Q 200 120 400 400 Q 600 680 800 792"></path><path d="M 0 770 Q 200 120 400 400 Q 600 680 800 770"></path><path d="M 0 748 Q 200 120 400 400 Q 600 680 800 748"></path><path d="M 0 726 Q 200 120 400 400 Q 600 680 800 726"></path><path d="M 0 704 Q 200 120 400 400 Q 600 680 800 704"></path><path d="M 0 682 Q 200 120 400 400 Q 600 680 800 682"></path><path d="M 0 660 Q 200 120 400 400 Q 600 680 800 660"></path><path d="M 0 638 Q 200 120 400 400 Q 600 680 800 638"></path><path d="M 0 616 Q 200 120 400 400 Q 600 680 800 616"></path><path d="M 0 594 Q 200 120 400 400 Q 600 680 800 594"></path><path d="M 0 572 Q 200 120 400 400 Q 600 680 800 572"></path><path d="M 0 550 Q 200 120 400 400 Q 600 680 800 550"></path><path d="M 0 528 Q 200 120 400 400 Q 600 680 800 528"></path><path d="M 0 506 Q 200 120 400 400 Q 600 680 800 506"></path><path d="M 0 484 Q 200 120 400 400 Q 600 680 800 484"></path><path d="M 0 462 Q 200 120 400 400 Q 600 680 800 462"></path><path d="M 0 440 Q 200 120 400 400 Q 600 680 800 440"></path><path d="M 0 418 Q 200 120 400 400 Q 600 680 800 418"></path><path d="M 0 396 Q 200 120 400 400 Q 600 680 800 396"></path><path d="M 0 374 Q 200 120 400 400 Q 600 680 800 374"></path><path d="M 0 352 Q 200 120 400 400 Q 600 680 800 352"></path><path d="M 0 330 Q 200 120 400 400 Q 600 680 800 330"></path><path d="M 0 308 Q 200 120 400 400 Q 600 680 800 308"></path><path d="M 0 286 Q 200 120 400 400 Q 600 680 800 286"></path><path d="M 0 264 Q 200 120 400 400 Q 600 680 800 264"></path><path d="M 0 242 Q 200 120 400 400 Q 600 680 800 242"></path><path d="M 0 220 Q 200 120 400 400 Q 600 680 800 220"></path><path d="M 0 198 Q 200 120 400 400 Q 600 680 800 198"></path><path d="M 0 176 Q 200 120 400 400 Q 600 680 800 176"></path><path d="M 0 154 Q 200 120 400 400 Q 600 680 800 154"></path><path d="M 0 132 Q 200 120 400 400 Q 600 680 800 132"></path><path d="M 0 110 Q 200 120 400 400 Q 600 680 800 110"></path><path d="M 0 88 Q 200 120 400 400 Q 600 680 800 88"></path><path d="M 0 66 Q 200 120 400 400 Q 600 680 800 66"></path><path d="M 0 44 Q 200 120 400 400 Q 600 680 800 44"></path></g></svg>